<svg  t="1573279016287" class="icon" viewBox="0 0 1024 1024" version="1.1" xmlns="http://www.w3.org/2000/svg" p-id="2928" width="200" height="200"><path d="M64 608V204.8C64 128 128 64 204.8 64h403.2c19.2 0 32 12.8 32 32s-12.8 32-32 32H204.8C160 128 128 160 128 204.8v403.2c0 19.2-12.8 32-32 32S64 627.2 64 608zM384 256h448c70.4 0 128 57.6 128 128v448c0 70.4-57.6 128-128 128H384c-70.4 0-128-57.6-128-128V384c0-70.4 57.6-128 128-128z m0 64c-38.4 0-64 25.6-64 64v448c0 38.4 25.6 64 64 64h448c38.4 0 64-25.6 64-64V384c0-38.4-25.6-64-64-64H384z" p-id="2929"></path></svg>
