<svg width="20px" height="20px" t="1574300407949" class="icon" viewBox="0 0 1024 1024" version="1.1" xmlns="http://www.w3.org/2000/svg" p-id="2961" width="200" height="200"><path d="M455.14 169.05h468.75a30.29 30.29 0 1 0 0-60.59H455.14a30.29 30.29 0 1 0 0 60.59zM923.89 358H455.14a30.29 30.29 0 1 0 0 60.59h468.75a30.29 30.29 0 1 0 0-60.59zM923.89 607.54H455.14a30.29 30.29 0 1 0 0 60.59h468.75a30.29 30.29 0 1 0 0-60.59zM923.89 860.13H455.14a30.29 30.29 0 1 0 0 60.59h468.75a30.29 30.29 0 1 0 0-60.59zM144.86 216.81l7.94-7.94v220.55a30.3 30.3 0 0 0 60.59 0V135.73a30.3 30.3 0 0 0-51.72-21.42L102 174a30.3 30.3 0 1 0 42.86 42.81zM262.57 860.13H165.9c35.88-44.17 84.61-105.22 99.4-128.87 19-30.38 22.64-70.14 9.3-101.3-12.42-29-37.95-48.87-71.89-55.87-35-7.23-68.34 2.5-96.36 28.13A147.91 147.91 0 0 0 76 641.27l54.12 27.24-0.09 0.19a89.52 89.52 0 0 1 18.33-22.78c13.13-11.54 26.9-15.63 42.09-12.5 14.55 3 23.85 9.67 28.43 20.37 5.59 13.07 3.54 31.72-5 45.35C196 727.88 110.13 833 78.57 871.09a30.3 30.3 0 0 0 23.33 49.62h160.67a30.29 30.29 0 1 0 0-60.58z" fill="" p-id="2962"></path></svg>
